Coordinates
version=1
nRows=16
nColumns=40
inDegrees=yes

Units are S.I. units (second, meters, Newtons, ...)
Angles are in degrees.

endheader
time	pelvis_tilt	pelvis_list	pelvis_rotation	pelvis_tx	pelvis_ty	pelvis_tz	hip_flexion_r	hip_adduction_r	hip_rotation_r	knee_angle_r	knee_angle_r_beta	ankle_angle_r	subtalar_angle_r	mtp_angle_r	hip_flexion_l	hip_adduction_l	hip_rotation_l	knee_angle_l	knee_angle_l_beta	ankle_angle_l	subtalar_angle_l	mtp_angle_l	lumbar_extension	lumbar_bending	lumbar_rotation	arm_flex_r	arm_add_r	arm_rot_r	elbow_flex_r	pro_sup_r	wrist_flex_r	wrist_dev_r	arm_flex_l	arm_add_l	arm_rot_l	elbow_flex_l	pro_sup_l	wrist_flex_l	wrist_dev_l
      5.05000000	     -7.80959798	     -4.26696666	     -1.86733647	      0.90831398	      0.92020124	      0.50463331	      0.87614897	     -3.56481793	    -16.48596261	     25.64222088	     25.64222088	     13.26170286	      7.24777270	    -12.24776706	     29.22672696	     -6.06355697	     -3.19729237	     25.28770327	     25.28770327	      6.83549430	    -14.10595325	      7.97043103	     -9.91496197	      6.98153624	      4.40121799	     22.91523010	    -21.11900695	     -8.79412894	    111.95806250	     44.42523775	      0.00000000	      0.00000000	    -10.74257773	     -8.86520673	     -3.33733621	     37.81467078	     45.90388419	      0.00000000	      0.00000000
      5.06142857	     -7.78173102	     -4.21935390	     -1.77536872	      0.90940455	      0.92139636	      0.50135793	      2.01004287	     -4.27234662	    -15.67865440	     28.65675919	     28.65675919	     11.67761773	      5.27029187	    -13.71237875	     28.46111260	     -5.75397625	     -3.23041895	     25.13991032	     25.13991032	      7.45220704	    -13.93159266	      7.78731718	     -9.82915914	      7.02916283	      4.48670207	     20.56099641	    -21.22863736	     -9.40697961	    109.28954508	     44.52536768	      0.00000000	      0.00000000	     -9.72222320	     -9.11797270	     -3.53466000	     39.26607908	     45.94943809	      0.00000000	      0.00000000
      5.07285714	     -7.61188054	     -4.27358213	     -1.65598094	      0.91057229	      0.92259530	      0.49843199	      2.96872757	     -4.67248498	    -14.60793498	     31.36515248	     31.36515248	      8.56420948	      1.86652670	    -18.47300059	     27.57997175	     -5.57996054	     -3.27661130	     25.06666269	     25.06666269	      8.11924304	    -13.66147829	      7.56796799	     -9.88503050	      7.11014850	      4.23439900	     18.59633636	    -20.29610930	    -10.81436998	    106.09098270	     44.68888755	      0.00000000	      0.00000000	     -9.52268685	     -9.61831457	     -3.65766097	     42.63351662	     46.00395225	      0.00000000	      0.00000000
      5.08428571	     -7.54132551	     -4.27857394	     -1.57761031	      0.91148074	      0.92342874	      0.49557213	      4.48577512	     -5.26224347	    -13.72357815	     34.97557444	     34.97557444	      6.65064395	     -0.60817597	    -19.03474932	     26.79693393	     -5.34789337	     -3.26332242	     24.95512231	     24.95512231	      8.70010626	    -13.55226140	      7.27086096	     -9.81028460	      7.20322064	      4.37334969	     16.28033235	    -20.45509097	    -10.96139043	    103.28817847	     44.77762591	      0.00000000	      0.00000000	     -8.30371859	     -9.90107388	     -3.81477314	     43.99746286	     46.04980162	      0.00000000	      0.00000000
      5.09571429	     -7.36525414	     -4.13699604	     -1.50812018	      0.91229194	      0.92417829	      0.49288535	      6.10661772	     -6.00594435	    -12.86275952	     38.84246326	     38.84246326	      4.60638984	     -3.01557506	    -19.15869267	     25.92963271	     -5.00463146	     -3.40428942	     24.89775009	     24.89775009	      9.25383085	    -13.40328242	      6.96394886	     -9.89553746	      7.09010884	      4.34745646	     14.09819648	    -20.09939036	    -11.07067764	    100.80901568	     44.85192369	      0.00000000	      0.00000000	     -7.07972133	    -10.30606401	     -3.98668303	     45.33594628	     46.09428329	      0.00000000	      0.00000000
      5.10714286	     -7.38318226	     -4.29900418	     -1.46796103	      0.91270938	      0.92461154	      0.49069258	      8.11056182	     -6.07266051	    -11.51800879	     42.67782686	     42.67782686	      2.14040803	     -6.60505959	    -18.79481891	     25.30079490	     -4.99883293	     -3.32225673	     24.81917626	     24.81917626	      9.76822760	    -13.26828488	      6.55925394	     -9.73616714	      7.25683179	      4.53829073	     12.23119944	    -19.75963071	    -12.02307333	     96.85317384	     45.00237042	      0.00000000	      0.00000000	     -6.15457646	    -10.67885008	     -4.06997750	     47.78388451	     46.14099213	      0.00000000	      0.00000000
      5.11857143	     -7.25578545	     -4.26893859	     -1.37685536	      0.91311614	      0.92500022	      0.48851351	     10.08065390	     -6.43578224	    -10.56336791	     46.62196203	     46.62196203	     -0.06021300	     -9.18492075	    -17.68482552	     24.52107376	     -4.81175433	     -3.40484742	     24.75507558	     24.75507558	     10.22192235	    -13.02467891	      5.85973260	     -9.72480767	      7.17193528	      3.95710884	     11.29233304	    -18.44995248	    -12.72223392	     92.45773505	     45.16374488	      0.00000000	      0.00000000	     -6.11008630	    -11.53729032	     -3.79277073	     51.66150105	     46.18434194	      0.00000000	      0.00000000
      5.13000000	     -7.13577920	     -4.29323455	     -1.34783975	      0.91322762	      0.92529162	      0.48652892	     12.18487631	     -6.59955192	     -9.51309954	     50.47943386	     50.47943386	     -2.01961652	    -11.49363020	    -15.75969626	     23.81415902	     -4.69003911	     -3.39690845	     24.78097243	     24.78097243	     10.72860064	    -12.97463250	      5.43035759	     -9.80805486	      7.22176409	      4.10434813	      9.47194068	    -18.20208172	    -12.88014382	     89.00740444	     45.27142710	      0.00000000	      0.00000000	     -4.77860383	    -11.95556576	     -3.91482871	     53.73126543	     46.24590178	      0.00000000	      0.00000000
      5.14142857	     -7.07699738	     -4.22435018	     -1.32069480	      0.91313148	      0.92544496	      0.48470587	     14.54968742	     -6.88491922	     -8.66490821	     54.47541091	     54.47541091	     -2.62898106	    -12.22730411	    -10.81318358	     23.10234077	     -4.50032104	     -3.50139930	     24.63907638	     24.63907638	     11.10983552	    -12.82010995	      4.76172409	     -9.78019741	      7.09261890	      3.56278465	      8.63295649	    -17.35391677	    -12.87136593	     84.61587394	     45.39989212	      0.00000000	      0.00000000	     -4.28277865	    -12.71261746	     -3.84515654	     56.90362077	     46.33846565	      0.00000000	      0.00000000
      5.15285714	     -6.99679319	     -4.16762947	     -1.34027502	      0.91293075	      0.92565492	      0.48304433	     16.87528464	     -7.04272057	     -7.83630955	     58.05327879	     58.05327879	     -3.22663629	    -12.87808589	     -6.66937229	     22.36619311	     -4.34283955	     -3.63776316	     24.50082634	     24.50082634	     11.54035539	    -12.65392802	      4.25232729	     -9.82739644	      7.02201813	      3.45710705	      7.39371316	    -16.83410237	    -12.87933213	     80.68122790	     45.50595274	      0.00000000	      0.00000000	     -3.17847315	    -13.21342904	     -4.03050339	     59.22777347	     46.45810144	      0.00000000	      0.00000000
      5.16428571	     -6.92826615	     -4.07975678	     -1.38870785	      0.91259863	      0.92589802	      0.48153300	     19.09847320	     -7.15562123	     -7.11008776	     61.01082879	     61.01082879	     -4.51466418	    -13.80335326	     -5.85287048	     21.60672005	     -4.17063459	     -3.80729944	     24.29303959	     24.29303959	     12.04635029	    -12.39093193	      3.97935682	     -9.91867377	      6.94235889	      3.77791480	      5.48153539	    -16.66743376	    -12.80089229	     78.11279664	     45.57595558	      0.00000000	      0.00000000	     -1.45186161	    -13.48978428	     -4.24452873	     60.71999055	     46.51551194	      0.00000000	      0.00000000
      5.17571429	     -6.71343295	     -4.05517879	     -1.35585744	      0.91229942	      0.92638818	      0.48006081	     21.03986072	     -7.24921677	     -6.72763984	     63.47473858	     63.47473858	     -5.39187445	    -14.23879730	     -5.45959550	     20.69531178	     -4.03800850	     -3.86537880	     24.08775353	     24.08775353	     12.57374393	    -12.14741609	      3.73903990	    -10.21962980	      6.99236241	      3.61136109	      3.76233821	    -16.05740348	    -12.55462794	     76.25085673	     45.61891762	      0.00000000	      0.00000000	      0.26896170	    -14.03938206	     -4.47718874	     61.89596598	     46.56530668	      0.00000000	      0.00000000
      5.18714286	     -6.69340642	     -3.99994033	     -1.54020537	      0.91186668	      0.92684694	      0.47896456	     23.44363511	     -7.15720849	     -6.04517396	     65.92979751	     65.92979751	     -4.23457231	    -13.47291023	      0.04215271	     19.85016363	     -3.99123055	     -4.36785303	     23.61293926	     23.61293926	     12.76133013	    -11.72148912	      2.95851555	    -10.17431585	      6.78398366	      3.36102331	      4.01212806	    -15.53110685	    -12.49177530	     68.21748802	     45.83013837	      0.00000000	      0.00000000	      0.59452742	    -14.59700893	     -4.41781329	     66.02212749	     46.72103625	      0.00000000	      0.00000000
      5.19857143	     -6.51835698	     -3.95223675	     -1.68142503	      0.91143894	      0.92747848	      0.47784314	     25.37498090	     -7.15801291	     -5.74476577	     67.49627648	     67.49627648	     -4.45381709	    -13.33863870	     -0.03333087	     18.87228262	     -3.90931162	     -4.70688822	     23.22088854	     23.22088854	     13.20505289	    -11.32610077	      2.71311777	    -10.45491868	      6.73402183	      3.90630313	      2.32647371	    -15.45535173	    -12.35484905	     64.97163918	     45.91813003	      0.00000000	      0.00000000	      2.45507567	    -14.75237756	     -4.44820906	     67.76828121	     46.77750298	      0.00000000	      0.00000000
      5.21000000	     -6.43254049	     -3.79788117	     -1.86323905	      0.91098836	      0.92808142	      0.47683930	     27.35538468	     -7.19735182	     -5.44774801	     68.58127871	     68.58127871	     -4.43267326	    -13.22780732	     -0.14864744	     17.88965405	     -3.71286356	     -5.13283733	     22.63977489	     22.63977489	     13.54914853	    -10.88990883	      2.54829907	    -10.64178118	      6.56875176	      4.30685413	      0.66334766	    -15.28129157	    -12.13367389	     61.86168963	     46.00137078	      0.00000000	      0.00000000	      4.16879536	    -14.88977925	     -4.48838904	     69.52591845	     46.82840036	      0.00000000	      0.00000000
      5.22142857	     -6.24351121	     -3.83465845	     -1.97321859	      0.91063541	      0.92895090	      0.47600728	     29.01211438	     -7.06221205	     -5.46741019	     69.03204169	     69.03204169	     -4.13717112	    -13.04621435	     -0.07137281	     16.80066840	     -3.71977212	     -5.47762887	     22.05582622	     22.05582622	     13.79861010	    -10.41010778	      2.05188246	    -10.84698426	      6.54331215	      3.78636393	      1.14962977	    -14.57695921	    -11.89107015	     54.63944358	     46.20892264	      0.00000000	      0.00000000	      5.03992186	    -15.83168233	     -4.04015145	     72.17174275	     46.89459787	      0.00000000	      0.00000000
